<?xml version="1.0" encoding="UTF-8"?>
<svg version="1.1" xmlns="http://www.w3.org/2000/svg" width="512" height="512">
<path d="M0 0 C90.65698653 0 90.65698653 0 110.8828125 19.6953125 C121.39850869 31.14228806 124.3729833 45.37077181 124.21875 60.58203125 C123.59358575 70.35022267 121.90383825 80.42662293 117 89 C116.57976562 89.74507813 116.15953125 90.49015625 115.7265625 91.2578125 C107.93484282 103.95702414 95.58456132 111.27515674 81.34570312 114.85644531 C64.39700191 118.81412357 49.13225473 118 31 118 C31 139.12 31 160.24 31 182 C20.77 182 10.54 182 0 182 C0 121.94 0 61.88 0 0 Z M31 24 C31 47.1 31 70.2 31 94 C57.50527882 94.87120142 57.50527882 94.87120142 81.3125 85.875 C88.84094476 77.82131491 91.49323537 67.1196534 91.1875 56.28515625 C90.45961197 47.41402091 88.53921236 38.97843737 81.8125 32.75 C67.23127691 21.33321256 48.59030415 24 31 24 Z " fill="#AABCF6" transform="translate(43,159)"/>
<path d="M0 0 C36.96 0 73.92 0 112 0 C111 13 111 13 109 24 C83.26 24 57.52 24 31 24 C31 42.81 31 61.62 31 81 C53.44 81 75.88 81 99 81 C99 88.92 99 96.84 99 105 C76.56 105 54.12 105 31 105 C31 130.41 31 155.82 31 182 C20.77 182 10.54 182 0 182 C0 121.94 0 61.88 0 0 Z " fill="#AABCF6" transform="translate(209,159)"/>
<path d="M0 0 C4.87436991 -0.22329729 9.74573961 -0.38613882 14.62402344 -0.49438477 C16.28112654 -0.53951672 17.93787369 -0.60084462 19.59375 -0.67895508 C33.17222548 -1.3032059 33.17222548 -1.3032059 37.17260742 1.54907227 C38.80995365 3.94390964 39.86915464 6.32802474 41 9 C41.94465393 10.65739508 42.89075435 12.31417438 43.86395264 13.95497131 C44.92193966 15.74256572 45.95015398 17.54431505 46.97070312 19.35351562 C47.48709351 20.26870972 47.48709351 20.26870972 48.01391602 21.20239258 C48.53296509 22.12314575 48.53296509 22.12314575 49.0625 23.0625 C54.3565345 32.50689284 54.3565345 32.50689284 59.99609375 41.74609375 C62 45 62 45 62 47 C62.66 47 63.32 47 64 47 C64.26482178 46.29149902 64.52964355 45.58299805 64.80249023 44.85302734 C66.05766118 41.86262416 67.53442366 39.15728867 69.16015625 36.3515625 C70.09770752 34.72915649 70.09770752 34.72915649 71.05419922 33.07397461 C71.71693848 31.93581299 72.37967773 30.79765137 73.0625 29.625 C73.74249065 28.45263676 74.42234041 27.28019178 75.10205078 26.10766602 C78.82369113 19.69637367 82.56814931 13.2986195 86.375 6.9375 C86.73730713 6.33180176 87.09961426 5.72610352 87.47290039 5.10205078 C89.86997726 1.13002274 89.86997726 1.13002274 91 0 C93.44830426 -0.08843793 95.86820599 -0.11528752 98.31640625 -0.09765625 C99.41298805 -0.09553383 99.41298805 -0.09553383 100.53172302 -0.09336853 C102.87535632 -0.08775408 105.21889539 -0.07519922 107.5625 -0.0625 C109.14778508 -0.05748686 110.73307166 -0.05292363 112.31835938 -0.04882812 C116.2122761 -0.03777997 120.10612205 -0.02050572 124 0 C122.77131189 3.30037589 121.41097289 6.1106778 119.40234375 9 C118.859729 9.78745605 118.31711426 10.57491211 117.75805664 11.38623047 C117.15727295 12.24877441 116.55648926 13.11131836 115.9375 14 C114.60049357 15.93936768 113.26465062 17.87953774 111.9296875 19.8203125 C111.56015457 20.35665314 111.19062164 20.89299377 110.80989075 21.44558716 C105.00381393 29.88325109 99.29199579 38.38526396 93.5625 46.875 C92.41859979 48.56905186 91.27463936 50.26306307 90.13061523 51.95703125 C87.41988149 55.97099748 84.70975889 59.98537561 82 64 C84.73967848 69.03912292 87.51813233 73.96812645 90.765625 78.703125 C91.47936279 79.74879639 92.19310059 80.79446777 92.9284668 81.87182617 C93.30578949 82.42083588 93.68311218 82.96984558 94.0718689 83.53549194 C95.2818249 85.29631407 96.48687623 87.06040207 97.69067383 88.82543945 C99.00486803 90.75227474 100.31932893 92.67892207 101.63508606 94.60469055 C107.10532503 102.61130454 112.54705071 110.6371989 117.98156738 118.66809082 C119.67679445 121.17168949 121.37497175 123.6732698 123.07324219 126.17480469 C124.11539521 127.71408383 125.15739497 129.25346675 126.19921875 130.79296875 C126.68579453 131.50831284 127.1723703 132.22365692 127.6736908 132.9606781 C131 137.88599794 131 137.88599794 131 139 C125.98320609 139.22324847 120.96932469 139.38612008 115.94873047 139.49438477 C114.24313996 139.53952418 112.53789548 139.60085724 110.83349609 139.67895508 C96.88556822 140.30184853 96.88556822 140.30184853 92.84228516 137.51025391 C91.20244244 135.10435328 90.15017709 132.67633126 89 130 C87.95704566 128.16087849 86.85882461 126.36216592 85.7538147 124.55970764 C84.51681186 122.54182831 83.30966045 120.50865929 82.109375 118.46875 C81.70009766 117.77394531 81.29082031 117.07914062 80.86914062 116.36328125 C80.45857422 115.66589844 80.04800781 114.96851563 79.625 114.25 C77.99374482 111.48345322 76.36089435 108.71785534 74.7265625 105.953125 C74.33164612 105.28486694 73.93672974 104.61660889 73.52984619 103.92810059 C69.76349137 97.57086142 65.89898404 91.27667649 62 85 C56.44708867 92.99420618 51.55956308 101.36821468 46.625 109.75 C45.8049473 111.14077822 44.98463617 112.5314041 44.1640625 113.921875 C43.76165344 114.60545578 43.35924438 115.28903656 42.94464111 115.99333191 C42.13500175 117.35829251 41.31727169 118.7184875 40.49139404 120.07368469 C38.5429724 123.28370618 36.75332653 126.44817486 35.23144531 129.88354492 C33.44325956 133.56559108 31.9913451 136.19723095 29 139 C23.07511369 140.56949122 17.56329759 140.24282674 11.5 139.8125 C9.89867259 139.74720913 8.29708912 139.68790746 6.6953125 139.63476562 C2.79050133 139.49223826 -1.10191332 139.26858148 -5 139 C-1.29370321 131.89946935 3.06225132 125.40482706 7.6875 118.875 C9.13129654 116.81847188 10.57400781 114.76118142 12.015625 112.703125 C12.70720703 111.71634766 13.39878906 110.72957031 14.11132812 109.71289062 C16.81425159 105.830408 19.44751831 101.9055504 22.03491211 97.9453125 C24.37781297 94.37667508 26.78994723 90.86705531 29.26271057 87.38674927 C30.86731602 85.12474985 32.45781754 82.85298545 34.04788208 80.58074951 C34.84490188 79.44981542 35.64846615 78.32346337 36.45870972 77.20196533 C37.5984366 75.62304873 38.71379651 74.02663053 39.828125 72.4296875 C40.4871582 71.50397949 41.14619141 70.57827148 41.82519531 69.62451172 C43.25771442 67.10665977 43.25771442 67.10665977 42.52587891 64.66113281 C40.42248456 60.99281307 38.13694231 57.48697526 35.7578125 53.9921875 C35.23027374 53.20923309 34.70273499 52.42627869 34.15921021 51.61959839 C32.44408752 49.07658055 30.72228987 46.53816803 29 44 C27.8391822 42.28310475 26.67870148 40.56598155 25.51855469 38.84863281 C21.36010776 32.69645146 17.19765062 26.54698129 13.02734375 20.40283203 C11.24261283 17.77262747 9.46090418 15.14039776 7.6796875 12.5078125 C7.13706268 11.70997345 6.59443787 10.9121344 6.03536987 10.09011841 C5.53369293 9.3476889 5.03201599 8.6052594 4.51513672 7.84033203 C4.0761203 7.19291046 3.63710388 6.54548889 3.18478394 5.87844849 C1.98244542 3.97216761 0.97287674 2.03160281 0 0 Z " fill="#AABCF6" transform="translate(350,202)"/>
</svg>
